HIERARCHY
ROOT Pelvis
{
	OFFSET 0.000000 0.000000 0.000000
	CHANNELS 6 Xposition Yposition Zposition Xrotation Yrotation Zrotation
	JOINT LeftUpLeg_virtual
	{
		OFFSET 0.000000 0.000000 0.000000
		CHANNELS 3 Xrotation Yrotation Zrotation
		JOINT LeftUpLeg
		{
			OFFSET 18.735201 -5.666702 -4.541200
			CHANNELS 3 Xrotation Yrotation Zrotation
			JOINT LeftLeg
			{
				OFFSET -0.021200 -31.938179 0.493100
				CHANNELS 3 Xrotation Yrotation Zrotation
				JOINT LeftFoot
				{
					OFFSET 0.021200 -31.938179 -4.336299
					CHANNELS 3 Xrotation Yrotation Zrotation
					JOINT LeftToeBase
					{
						OFFSET 0.943001 -26.722000 15.023500
						CHANNELS 3 Xrotation Yrotation Zrotation
						End Site
						{
							OFFSET 0 0 0
						}
					}
				}
			}
		}
	}
	JOINT RightUpLeg_virtual
	{
		OFFSET 0.000000 0.000000 0.000000
		CHANNELS 3 Xrotation Yrotation Zrotation
		JOINT RightUpLeg
		{
			OFFSET -18.735201 -5.666702 -4.541200
			CHANNELS 3 Xrotation Yrotation Zrotation
			JOINT RightLeg
			{
				OFFSET 0.018946 -31.938133 0.493100
				CHANNELS 3 Xrotation Yrotation Zrotation
				JOINT RightFoot
				{
					OFFSET -0.018946 -31.938126 -4.336299
					CHANNELS 3 Xrotation Yrotation Zrotation
					JOINT RightToeBase
					{
						OFFSET -0.943001 -26.722004 15.023500
						CHANNELS 3 Xrotation Yrotation Zrotation
						End Site
						{
							OFFSET 0 0 0
						}
					}
				}
			}
		}
	}
	JOINT Hips_virtual
	{
		OFFSET 0.000000 0.000000 0.000000
		CHANNELS 3 Xrotation Yrotation Zrotation
		JOINT Hips
		{
			OFFSET -0.000000 -0.000000 -0.000000
			CHANNELS 3 Xrotation Yrotation Zrotation
			JOINT Spine
			{
				OFFSET 0.000000 10.199997 -0.299500
				CHANNELS 3 Xrotation Yrotation Zrotation
				JOINT Spine1
				{
					OFFSET 0.000000 11.900002 -1.516600
					CHANNELS 3 Xrotation Yrotation Zrotation
					JOINT Spine2
					{
						OFFSET 0.000000 13.600006 -2.842500
						CHANNELS 3 Xrotation Yrotation Zrotation
						JOINT Neck_virtual
						{
							OFFSET 0.000000 0.000000 0.000000
							CHANNELS 3 Xrotation Yrotation Zrotation
							JOINT Neck
							{
								OFFSET 0.000000 9.624100 -2.890100
								CHANNELS 3 Xrotation Yrotation Zrotation
								JOINT Head
								{
									OFFSET 0.000000 14.068802 -1.351900
									CHANNELS 3 Xrotation Yrotation Zrotation
									End Site
									{
										OFFSET 0 0 0
									}
								}
							}
						}
						JOINT LeftShoulder_virtual
						{
							OFFSET 0.000000 0.000000 0.000000
							CHANNELS 3 Xrotation Yrotation Zrotation
							JOINT LeftShoulder
							{
								OFFSET 15.263000 10.923401 -0.547700
								CHANNELS 3 Xrotation Yrotation Zrotation
								JOINT LeftArm
								{
									OFFSET 25.438599 -2.830597 -13.032500
									CHANNELS 3 Xrotation Yrotation Zrotation
									JOINT LeftForeArm
									{
										OFFSET 29.960503 0.000000 0.000000
										CHANNELS 3 Xrotation Yrotation Zrotation
										JOINT LeftHand
										{
											OFFSET 27.849251 0.000000 0.000000
											CHANNELS 3 Xrotation Yrotation Zrotation
											End Site
											{
												OFFSET 0 0 0
											}
										}
									}
								}
							}
						}
						JOINT RightShoulder_virtual
						{
							OFFSET 0.000000 0.000000 0.000000
							CHANNELS 3 Xrotation Yrotation Zrotation
							JOINT RightShoulder
							{
								OFFSET -15.263000 10.923401 -0.547700
								CHANNELS 3 Xrotation Yrotation Zrotation
								JOINT RightArm
								{
									OFFSET -25.438599 -2.830597 -13.032500
									CHANNELS 3 Xrotation Yrotation Zrotation
									JOINT RightForeArm
									{
										OFFSET -29.960503 0.000000 0.000000
										CHANNELS 3 Xrotation Yrotation Zrotation
										JOINT RightHand
										{
											OFFSET -27.849251 0.000000 0.000000
											CHANNELS 3 Xrotation Yrotation Zrotation
											End Site
											{
												OFFSET 0 0 0
											}
										}
									}
								}
							}
						}
					}
				}
			}
		}
	}
}
MOTION
Frames: 10
Frame Time: 0.03333333
2.982869 71.746368 59.128151 0.000000 0.000000 0.000000 -11.272395 -39.471984 -7.157741 -52.622127 -10.935425 25.965142 53.669892 -5.830610 11.182935 -1.654035 -16.355392 -20.610308 0.000000 0.000000 0.000000 -11.287071 -38.686878 -7.210514 -35.768529 17.728384 -43.541780 94.150620 1.304729 -5.701927 -4.071317 21.765019 -0.734799 0.000000 0.000000 0.000000 -11.133657 -37.472675 -7.068153 -0.808855 0.045808 -0.075235 22.663573 -0.591723 -9.056447 2.342493 1.501980 0.585735 0.000000 0.000000 0.000000 2.859921 2.479788 1.741226 2.378982 1.965331 -1.451863 0.000000 0.000000 0.000000 6.500679 1.990644 1.857447 -2.078521 0.596485 -7.904177 -47.490343 2.713835 -43.486742 -148.517109 -58.982843 -141.527489 0.000000 0.000000 0.000000 -1.614162 2.573189 0.810675 11.063804 9.605213 1.078800 -52.241392 27.953734 72.422634 -170.853344 60.570746 179.254995 0.000000 0.000000 0.000000 
2.386905 71.836784 56.485481 0.000000 0.000000 0.000000 -10.679819 -40.268138 -5.923761 -45.689570 -9.340775 26.576727 41.327265 -7.610764 11.276461 -0.645891 -14.965991 -22.424539 0.000000 0.000000 0.000000 -11.053628 -39.096085 -6.332098 -32.150592 16.409366 -44.225065 92.784008 1.739349 -3.922692 -16.864627 19.045308 1.946532 0.000000 0.000000 0.000000 -11.234719 -38.156971 -6.186175 -0.773406 0.036587 -0.072033 20.205972 2.169660 -7.400782 2.752618 1.970982 -0.032043 0.000000 0.000000 0.000000 3.471687 2.917024 1.008898 2.682554 2.215678 -1.661093 0.000000 0.000000 0.000000 6.807814 2.523518 1.265132 -2.200207 0.569332 -8.298997 -45.392320 2.059931 -44.633739 -151.658039 -58.033775 -144.110913 0.000000 0.000000 0.000000 -0.695300 3.073549 -0.094579 11.115646 11.038098 -0.344294 -54.617184 24.468620 75.757569 -177.273995 62.858292 -176.444659 0.000000 0.000000 0.000000 
1.516526 72.343193 53.529892 0.000000 0.000000 0.000000 -9.215357 -40.005941 -4.321999 -41.583226 -7.898269 26.467297 31.146738 -8.533590 10.709841 0.918332 -13.304348 -22.467337 0.000000 0.000000 0.000000 -9.982104 -38.686331 -4.937186 -27.970130 13.514293 -43.569797 89.236141 1.710498 -1.854396 -27.928876 15.862216 5.309162 0.000000 0.000000 0.000000 -10.260939 -38.219679 -4.676073 -0.741759 0.021871 -0.027688 17.827489 4.782983 -6.139974 3.256909 2.450976 -0.714567 0.000000 0.000000 0.000000 4.141436 3.376700 0.293463 2.726014 2.400584 -1.761950 0.000000 0.000000 0.000000 7.129196 3.019848 0.702609 -2.530557 0.570247 -8.470424 -44.280632 0.516514 -44.846360 -154.385580 -57.432732 -146.525494 0.000000 0.000000 0.000000 0.359239 3.589593 -1.043963 11.096593 11.669105 -2.513557 -56.250245 21.955923 77.897850 176.347329 64.355477 -172.068407 0.000000 0.000000 0.000000 
0.519759 73.354233 50.133339 0.000000 0.000000 0.000000 -7.554372 -39.357206 -2.862421 -41.288029 -6.690826 26.111157 27.425841 -8.383237 9.844980 1.307001 -11.561666 -21.246091 0.000000 0.000000 0.000000 -8.462639 -37.933170 -3.402983 -24.827439 9.532640 -41.547604 85.018664 0.956208 0.456475 -36.411411 12.391082 8.223507 0.000000 0.000000 0.000000 -8.593570 -37.970439 -3.020424 -0.738159 0.008341 0.026382 15.992499 6.841249 -5.361381 3.744739 2.800976 -1.230448 0.000000 0.000000 0.000000 4.688216 3.766820 -0.180182 2.517607 2.541537 -1.773449 0.000000 0.000000 0.000000 7.396583 3.392302 0.322603 -2.952999 0.637224 -8.582200 -44.183630 -1.368202 -44.499157 -156.262010 -57.560572 -148.249502 0.000000 0.000000 0.000000 1.261704 3.972560 -1.738468 10.954954 11.526893 -4.854098 -58.054682 20.474156 79.192423 171.187258 64.816071 -168.532650 0.000000 0.000000 0.000000 
-0.527152 74.966454 46.740288 0.000000 0.000000 0.000000 -5.913884 -38.643264 -1.730631 -43.974366 -5.507804 25.747798 30.755703 -8.070717 8.757758 0.086892 -10.625103 -20.078721 0.000000 0.000000 0.000000 -6.921817 -37.392998 -2.208621 -23.358552 5.252206 -38.567121 81.269545 -0.717674 3.101631 -41.753660 9.026465 9.670375 0.000000 0.000000 0.000000 -6.684197 -37.687119 -1.716900 -0.759415 -0.000480 0.049095 14.895008 8.037143 -4.892659 4.080497 2.957843 -1.449872 0.000000 0.000000 0.000000 4.991035 3.982657 -0.347294 2.112768 2.642801 -1.737169 0.000000 0.000000 0.000000 7.658777 3.561757 0.189040 -3.342547 0.626957 -8.833317 -45.043923 -3.069744 -44.116530 -157.088327 -58.550895 -149.083085 0.000000 0.000000 0.000000 1.797996 4.165634 -2.020566 10.782269 10.814918 -6.794694 -60.206191 19.787106 79.927591 167.908521 64.448142 -166.573697 0.000000 0.000000 0.000000 
-1.349755 77.163422 43.536835 0.000000 0.000000 0.000000 -4.432276 -38.297403 -1.030207 -47.846899 -3.960609 25.371494 39.523214 -8.252582 7.640982 -2.922382 -10.728594 -19.793490 0.000000 0.000000 0.000000 -5.388303 -37.539451 -1.535364 -23.777610 1.225183 -34.941663 77.828025 -3.117143 5.754630 -43.039594 6.351646 10.369283 0.000000 0.000000 0.000000 -4.716382 -37.898435 -0.889718 -0.777278 -0.002434 0.026961 14.387956 8.455429 -4.607630 4.228778 2.960551 -1.439347 0.000000 0.000000 0.000000 4.986412 4.024639 -0.268347 1.616264 2.710082 -1.663549 0.000000 0.000000 0.000000 7.809640 3.557367 0.275693 -3.608953 0.520297 -9.059603 -46.668521 -4.345390 -44.033898 -156.912135 -60.180442 -149.067458 0.000000 0.000000 0.000000 2.038967 4.166862 -1.970446 10.576457 9.979437 -7.847830 -62.241677 19.761267 80.127558 166.688431 63.802293 -166.148258 0.000000 0.000000 0.000000 
-1.960413 79.880623 40.539310 0.000000 0.000000 0.000000 -2.968869 -38.968323 -0.652363 -50.758039 -1.793867 24.974501 49.864278 -9.043371 6.667608 -6.888644 -11.603642 -20.541953 0.000000 0.000000 0.000000 -3.726944 -38.595107 -1.191934 -25.720010 -1.954288 -30.962583 74.066974 -5.744228 7.890372 -40.349609 4.874227 11.655770 0.000000 0.000000 0.000000 -2.781430 -38.811747 -0.437696 -0.794441 0.005162 -0.021944 14.196057 8.321722 -4.434104 4.295724 2.892802 -1.350583 0.000000 0.000000 0.000000 4.684556 3.940782 -0.057739 1.128721 2.741356 -1.566474 0.000000 0.000000 0.000000 7.814486 3.444813 0.473834 -3.712685 0.389568 -9.036661 -49.151052 -4.993160 -44.009183 -156.214459 -61.842220 -148.682727 0.000000 0.000000 0.000000 2.039065 4.028537 -1.757398 10.437527 9.486062 -7.781753 -63.918481 20.388574 79.866966 167.188906 63.236050 -166.848107 0.000000 0.000000 0.000000 
-2.242207 82.794060 37.794739 0.000000 0.000000 0.000000 -1.322001 -40.681962 -0.392660 -51.308842 1.039158 24.215136 58.541449 -10.120515 6.024567 -10.061533 -12.626052 -21.709958 0.000000 0.000000 0.000000 -1.898255 -40.680706 -0.956899 -28.118067 -4.372953 -26.807907 69.249498 -8.354669 9.417877 -34.459305 4.631205 13.964860 0.000000 0.000000 0.000000 -0.843308 -40.577409 -0.117784 -0.807651 0.008970 -0.067817 13.962477 7.895144 -4.380865 4.308789 2.827067 -1.322772 0.000000 0.000000 0.000000 4.186469 3.767879 0.131491 0.742451 2.735352 -1.447966 0.000000 0.000000 0.000000 7.699641 3.262574 0.655436 -3.706321 0.200541 -8.554286 -52.245459 -4.836557 -43.813051 -155.593116 -62.936826 -148.512546 0.000000 0.000000 0.000000 1.948626 3.834934 -1.577551 10.375092 9.412505 -6.949574 -65.127029 21.717158 79.314445 168.940986 62.771781 -168.300342 0.000000 0.000000 0.000000 
-2.203705 85.532951 35.163471 0.000000 0.000000 0.000000 0.485063 -43.449996 -0.079561 -49.315581 4.321086 22.975940 64.065945 -10.751062 5.726361 -12.074335 -12.765572 -21.813946 0.000000 0.000000 0.000000 0.053159 -43.505535 -0.585217 -30.093745 -6.352058 -23.069333 63.945631 -10.971807 10.377835 -27.732033 5.054818 16.265146 0.000000 0.000000 0.000000 1.147085 -43.059138 0.336927 -0.821936 0.008566 -0.075893 13.438343 7.438617 -4.511701 4.320547 2.776883 -1.420848 0.000000 0.000000 0.000000 3.631884 3.580317 0.237913 0.530000 2.692520 -1.305097 0.000000 0.000000 0.000000 7.461372 3.056824 0.720060 -3.668576 0.054631 -7.522735 -55.503753 -4.075605 -43.356473 -155.267111 -63.450886 -148.660652 0.000000 0.000000 0.000000 1.917209 3.639839 -1.533236 10.349172 9.616568 -5.694546 -66.037404 23.537933 78.790781 171.428241 62.414993 -170.031849 0.000000 0.000000 0.000000 
-1.912307 87.749168 32.472919 0.000000 0.000000 0.000000 2.363805 -46.736375 0.400665 -45.588128 7.308581 21.229060 66.140478 -10.641142 5.665268 -13.198831 -11.770524 -20.440296 0.000000 0.000000 0.000000 1.967364 -46.522724 0.093806 -31.138201 -7.650141 -20.533661 59.644395 -13.670727 10.679785 -21.803258 5.423817 17.323228 0.000000 0.000000 0.000000 3.023926 -45.761837 1.006150 -0.848802 0.004805 -0.052168 12.592807 7.024946 -4.779264 4.394302 2.727664 -1.623221 0.000000 0.000000 0.000000 3.137334 3.388122 0.260868 0.515637 2.623689 -1.161379 0.000000 0.000000 0.000000 7.231020 2.822769 0.655598 -3.663631 -0.056640 -6.286714 -58.579432 -2.991383 -42.772086 -154.795719 -63.815386 -148.613401 0.000000 0.000000 0.000000 1.952482 3.471412 -1.588317 10.360671 9.808316 -4.506176 -67.042350 25.501874 78.522573 174.013877 62.108713 -171.711065 0.000000 0.000000 0.000000 
